Coordinates
version=1
nRows=10
nColumns=33
inDegrees=yes

Units are S.I. units (second, meters, Newtons, ...)
Angles are in degrees.

endheader
time	ground_thorax_rot_x	ground_thorax_rot_y	ground_thorax_rot_z	ground_thorax_tx	ground_thorax_ty	ground_thorax_tz	clav_prot_r	clav_elev_r	scapula_abduction_r	scapula_elevation_r	scapula_upward_rot_r	scapula_winging_r	shoulder_elv_r	plane_of_elev_r	axial_rot_r	elbow_flexion_r	pro_sup_r	wrist_flex_r	wrist_dev_r	clav_prot_l	clav_elev_l	scapula_abduction_l	scapula_elevation_l	scapula_upward_rot_l	scapula_winging_l	shoulder_elv_l	plane_of_elev_l	axial_rot_l	elbow_flexion_l	pro_sup_l	wrist_flex_l	wrist_dev_l
      2.92000000	    -39.97574253	     -7.42689698	     12.50218260	   -164.87270169	    813.63054589	      5.10040769	      7.51814094	    -45.00000000	     39.60497053	    -45.00000000	    -45.00000000	  -2973.09567000	  -1543.99104678	    142.17235737	    179.99999979	    730.53074116	     48.23229298	     24.10837025	     13.27685576	     17.57099860	     40.93383627	    -41.47174005	    -45.00000000	    -38.06892256	   4042.82045854	  -2809.15448768	     25.81968224	    -28.21930000	    730.00990578	      4.51988339	      8.26844190	    -19.34144484
      2.93000000	    -39.93975816	     -7.07651360	     12.42198459	   -167.94130707	    815.89683589	      5.12452321	      7.62927975	    -45.00000000	     39.34562747	    -45.00000000	    -45.00000000	  -2973.50687155	  -1543.89076560	    142.02856553	    179.99999979	    730.49993001	     48.26947745	     24.10397738	     13.01607527	     17.34986650	     40.53238414	    -41.43107801	    -45.00000000	    -37.89926986	   4043.05184802	  -2809.16650406	     25.85550339	    -28.34133442	    729.89166878	      3.90952614	      8.28421630	    -19.37404008
      2.94000000	    -39.91508023	     -6.69967296	     12.15177799	   -171.01717804	    818.12573955	      5.15798104	      7.63785757	    -45.00000000	     39.53912565	    -45.00000000	    -45.00000000	  -2973.76272078	  -1543.69332906	    142.08660948	    179.99999979	    730.67139956	     48.31248704	     24.20044857	     12.90444148	     17.17472479	     40.64996649	    -41.34959232	    -45.00000000	    -37.62629547	   4043.34294455	  -2809.08356982	     25.72887368	    -28.92547102	    730.06056789	      3.40015042	      8.18401081	    -19.46649220
      2.95000000	    -39.69828036	     -6.71536609	     12.35285429	   -174.08502616	    820.29709907	      5.20025129	      7.85480738	    -45.00000000	     39.56506200	    -45.00000000	    -45.00000000	  -2974.17039685	  -1543.56829090	    142.08923903	    179.99999979	    730.51246255	     48.38310836	     24.22066822	     12.70503225	     17.16529588	     39.75282834	    -41.32451640	    -45.00000000	    -39.18952906	   4043.30239444	  -2808.56071806	     25.98608570	    -27.89356513	    730.00956569	      2.42869521	      8.16023124	    -19.46795740
      2.96000000	    -39.77101662	     -6.09363207	     11.88915231	   -177.14311774	    822.40155029	      5.25108832	      7.75231030	    -45.00000000	     39.54627172	    -45.00000000	    -45.00000000	  -2974.33900089	  -1543.39146978	    142.07762671	    179.99999979	    730.70561999	     48.45192316	     24.28091087	     12.59765431	     16.85794239	     40.41844771	    -41.13874149	    -45.00000000	    -37.64709459	   4043.70809270	  -2808.83805461	     25.64962297	    -29.30918367	    730.11311575	      2.24235484	      8.08742053	    -19.57246982
      2.97000000	    -39.57358027	     -6.07238001	     12.07562840	   -180.18004268	    824.42606719	      5.31066757	      8.03989288	    -45.00000000	     39.82586503	    -45.00000000	    -45.00000000	  -2974.77519328	  -1543.34817796	    142.20981347	    179.99999979	    730.60573115	     48.57492583	     24.39708349	     12.53079025	     16.94173821	     39.62423540	    -41.13202504	    -45.00000000	    -39.44589282	   4043.64167517	  -2808.21387561	     25.92019708	    -28.21081433	    730.20261584	      1.38358534	      7.85399650	    -19.59542150
      2.98000000	    -39.51237589	     -5.77596579	     11.88224566	   -183.19160090	    826.36470721	      5.37915972	      8.12193091	    -45.00000000	     39.78446120	    -45.00000000	    -45.00000000	  -2975.07323123	  -1543.17967353	    142.12693445	    179.99999979	    730.67515697	     48.68899394	     24.48356363	     12.43885981	     16.80804923	     39.58902686	    -41.03654914	    -45.00000000	    -39.22087916	   4043.87669930	  -2808.28477502	     25.77347539	    -28.87332385	    730.14029257	      1.06898255	      7.62294373	    -19.63455189
      2.99000000	    -39.66125966	     -5.28028140	     11.44218393	   -186.16656689	    828.21016720	      5.45666257	      7.82336247	    -45.00000000	     39.70946881	    -45.00000000	    -45.00000000	  -2974.98485767	  -1543.09846447	    142.31787760	    179.99999979	    730.73360107	     48.79199462	     24.40402222	     12.19530808	     16.36432903	     40.59259192	    -40.64537929	    -45.00000000	    -37.46718331	   4044.32992387	  -2808.41320313	     25.35495837	    -30.51946858	    730.46148337	      1.16967503	      7.88762278	    -19.79179210
      3.00000000	    -39.40316162	     -5.20726975	     11.71926678	   -189.09841841	    829.96147899	      5.54308895	      8.29311310	    -45.00000000	     39.94189725	    -45.00000000	    -45.00000000	  -2975.62322890	  -1543.09354589	    142.35152814	    179.99999979	    730.63815809	     49.00205913	     24.65834819	     12.29081597	     16.59201576	     39.47212655	    -40.87746180	    -45.00000000	    -39.36326197	   4044.32067784	  -2808.14153906	     25.68869863	    -29.75985693	    730.24839583	      0.73036615	      7.16798709	    -19.76128216
      3.01000000	    -39.34645761	     -4.85164926	     11.49082157	   -191.97284733	    831.61450982	      5.63782836	      8.36757547	    -45.00000000	     40.04598457	    -45.00000000	    -45.00000000	  -2975.89699738	  -1543.00032376	    142.36087873	    179.99999979	    730.67536548	     49.21371671	     24.78207882	     12.18724434	     16.49649247	     39.40055994	    -40.72714564	    -45.00000000	    -39.40432876	   4044.39130405	  -2808.04022039	     25.63178547	    -29.70769978	    730.29267886	      0.59006353	      6.97219721	    -19.81494859
